<?xml version="1.0" encoding="UTF-8" standalone="no"?>
<!-- Created with Inkscape (http://www.inkscape.org/) -->

<svg
   xmlns:dc="http://purl.org/dc/elements/1.1/"
   xmlns:cc="http://creativecommons.org/ns#"
   xmlns:rdf="http://www.w3.org/1999/02/22-rdf-syntax-ns#"
   xmlns:svg="http://www.w3.org/2000/svg"
   xmlns="http://www.w3.org/2000/svg"
   xmlns:sodipodi="http://sodipodi.sourceforge.net/DTD/sodipodi-0.dtd"
   xmlns:inkscape="http://www.inkscape.org/namespaces/inkscape"
   width="450.00024"
   height="450.00507"
   id="svg2"
   version="1.1"
   inkscape:version="0.48.5 r10040"
   sodipodi:docname="Ministerios.svg">
  <defs
     id="defs4" />
  <sodipodi:namedview
     id="base"
     pagecolor="#ffffff"
     bordercolor="#666666"
     borderopacity="1.0"
     inkscape:pageopacity="0.0"
     inkscape:pageshadow="2"
     inkscape:zoom="0.98994949"
     inkscape:cx="150.16721"
     inkscape:cy="233.01699"
     inkscape:document-units="px"
     inkscape:current-layer="layer1"
     showgrid="false"
     inkscape:window-width="1366"
     inkscape:window-height="705"
     inkscape:window-x="-8"
     inkscape:window-y="-8"
     inkscape:window-maximized="1"
     showguides="true"
     inkscape:guide-bbox="true"
     fit-margin-top="0"
     fit-margin-left="0"
     fit-margin-right="0"
     fit-margin-bottom="0">
    <sodipodi:guide
       orientation="1,0"
       position="226.39745,252.51742"
       id="guide3918" />
  </sodipodi:namedview>
  <metadata
     id="metadata7">
    <rdf:RDF>
      <cc:Work
         rdf:about="">
        <dc:format>image/svg+xml</dc:format>
        <dc:type
           rdf:resource="http://purl.org/dc/dcmitype/StillImage" />
        <dc:title></dc:title>
      </cc:Work>
    </rdf:RDF>
  </metadata>
  <g
     inkscape:label="Capa 1"
     inkscape:groupmode="layer"
     id="layer1"
     transform="translate(-147.53112,-288.08881)">
    <path
       style="fill:#5a6e5d;fill-opacity:1;stroke:#000000;stroke-width:1px;stroke-linecap:butt;stroke-linejoin:miter;stroke-opacity:1"
       d="m 304.05592,526.57778 138.01209,-0.50508 -2.65165,25.25382 -5.05077,20.20305 -12.6269,15.65737 -14.64721,12.6269 -14.64722,5.55584 -26.76904,1.01015 -30.30457,-11.11167 -17.67767,-16.16245 -11.11168,-32.32488 z"
       id="path4198"
       inkscape:connector-curvature="0"
       sodipodi:nodetypes="cccccccccccc" />
    <path
       style="fill:#cbe7f3;fill-opacity:1;stroke:#000000;stroke-width:1px;stroke-linecap:butt;stroke-linejoin:miter;stroke-opacity:1"
       d="m 306.5813,516.98133 135.36044,12.12183 -0.50508,-24.24366 -2.52538,-22.22335 -7.57614,-22.72844 -14.64721,-20.20305 -21.71828,-13.13198 -20.20306,-4.04061 -26.26396,6.06092 -13.13198,7.57614 -11.61676,10.6066 -12.62691,21.2132 -4.54568,24.24367 z"
       id="path4196"
       inkscape:connector-curvature="0" />
    <path
       style="fill:#4fbbea;fill-opacity:1;stroke:#000000;stroke-width:0.2;stroke-linecap:butt;stroke-linejoin:miter;stroke-miterlimit:4;stroke-opacity:1;stroke-dasharray:none"
       d="m 340.08929,532.71932 c 0,0 27.41071,6.78572 18.39285,8.125 -9.01785,1.33929 -15,4.73215 -15,4.73215 l -4.375,0.98214 -3.21428,0.625 c 0,0 -4.19643,1.78571 2.32143,3.03571 6.51785,1.25 10.17857,2.5 8.57143,4.73215 -1.60715,2.23214 -12.94643,5.98214 -12.94643,5.98214 l 1.42857,1.96429 c 0,0 5.26786,0.80357 -2.05357,4.91071 -7.32143,4.10714 -15.625,3.21429 -15.625,3.21429 l -9.19643,14.01785 27.5,25 38.39286,14.64286 37.67857,-5.89286 25.71428,-30 8.21429,-32.5 c 0,0 -13.75,-11.42857 -20.53572,-8.92857 -6.78571,2.5 -15.89285,2.85714 -15.89285,2.85714 l -15.71429,0 c 0,0 -4.64286,0 -3.21428,-4.10714 1.42857,-4.10714 -7.85715,-5 -7.85715,-5 0,0 -11.78571,1.78572 -8.75,0 3.03572,-1.78571 5,-5.89286 -0.53571,-5.35714 -5.53572,0.53571 -23.57143,-2.14286 -23.57143,-5.35714 l -8.52679,-0.3125 z"
       id="path4149"
       inkscape:connector-curvature="0" />
    <path
       style="fill:#cbe7f3;fill-opacity:1;stroke:#000000;stroke-width:0.30000001;stroke-linecap:butt;stroke-linejoin:miter;stroke-miterlimit:4;stroke-opacity:1;stroke-dasharray:none"
       d="m 375.53125,423.53125 -18.6875,3.03125 -16.4375,6.3125 -13.125,9.59375 -11.09375,14.65625 -7.59375,22.46875 -2.0625,13.625 2.5625,0.0312 4.0625,0.25 6.3125,-4.3125 2.25,0 3.8125,-0.25 3.28125,-3.53125 c 0,0 1.20542,-0.55679 2.53125,-1.125 1.32583,-0.56821 2.77617,-1.125 3.28125,-1.125 0.50508,0 1.95416,0.12246 3.40625,0.375 1.45209,0.25254 2.90117,0.61992 3.40625,1.125 0.50508,0.50508 1.45923,0.87183 2.40625,1.1875 0.94702,0.31567 1.86992,0.59121 2.375,0.84375 1.01015,0.50507 6.3125,1.75 6.3125,1.75 l 4.3125,0 4.28125,0 c 0.63135,0 2.14134,0.30838 3.625,0.71875 1.48366,0.41037 2.93243,0.93369 3.4375,1.3125 0.50508,0.3788 1.70733,0.86897 2.84375,1.46875 0.56821,0.29989 1.12056,0.62546 1.5625,0.96875 0.44194,0.34329 0.77998,0.71494 0.90625,1.09375 0.25254,0.75761 0.77554,1.46114 1.34375,2.21875 0.56821,0.75761 1.18242,1.5836 1.6875,2.59375 0.50508,1.01015 1.21209,1.61929 1.875,2.1875 0.66291,0.56821 1.27744,1.08614 1.65625,1.84375 0.75761,1.51523 1.51855,2.76856 2.78125,4.03125 1.26269,1.26269 6.5625,5.3125 6.5625,5.3125 l 7.34375,3.28125 c 0,0 6.05235,2.02871 7.0625,2.28125 1.01015,0.25254 4.28125,0.75 4.28125,0.75 l 3.53125,0.25 3.03125,-1.25 c 0,0 2.0211,-0.53125 3.03125,-0.53125 1.01015,0 6.84375,-0.25 6.84375,-0.25 l 2.5,0.25 1.53125,1.78125 4.28125,0 3.28125,1 3.03125,0.5 3.03125,-0.5 0.6875,0 0.34375,-2.25 c 0,0 -0.77871,-14.14356 -1.03125,-15.40625 -0.25254,-1.26269 -2.53125,-21.21875 -2.53125,-21.21875 l -8.5625,-19.71875 -12.875,-21.71875 L 399.25,427.3437 375.53125,423.5312 z"
       id="path4151"
       inkscape:connector-curvature="0" />
    <g
       style="stroke:#000000;stroke-width:0.30000001;stroke-miterlimit:4;stroke-opacity:1;stroke-dasharray:none"
       id="g4101"
       transform="matrix(-1,0,0,1,747.72276,0)">
      <path
         style="fill:#cb0300;fill-opacity:1;stroke:#000000;stroke-width:0.30000001;stroke-linecap:butt;stroke-linejoin:miter;stroke-miterlimit:4;stroke-opacity:1;stroke-dasharray:none"
         d="m 396.8125,616.625 11.53125,-3.6875 c 1.8309,0.20519 3.60528,0.24966 5.3125,0.15625 1.70722,-0.0934 3.35272,-0.30235 4.9375,-0.65625 1.58478,-0.3539 3.09894,-0.82996 4.5625,-1.40625 1.46356,-0.57629 2.87517,-1.27068 4.21875,-2.03125 1.34358,-0.76057 2.61892,-1.59324 3.84375,-2.5 1.22483,-0.90676 2.39268,-1.89141 3.5,-2.90625 2.21464,-2.02968 4.21677,-4.23537 5.96875,-6.46875 1.75198,-2.23338 3.26331,-4.49273 4.5625,-6.625 1.29919,-2.13227 2.36249,-4.11742 3.21875,-5.84375 1.71252,-3.45267 2.5625,-5.8125 2.5625,-5.8125 0.74183,-1.75198 1.40164,-3.65936 2,-5.6875 0.59836,-2.02814 1.12591,-4.15338 1.59375,-6.40625 0.93567,-4.50573 1.63373,-9.43511 2.125,-14.53125 0.49127,-5.09614 0.78706,-10.38106 0.9375,-15.65625 0.15044,-5.27519 0.14931,-10.51963 0.0625,-15.5625 -0.17362,-10.08574 -0.71762,-19.31169 -1.21875,-26 -0.50113,-6.68831 -0.9375,-10.84375 -0.9375,-10.84375 l -0.59375,-1.875 -12.3125,10.4375 -1.25,2.84375 1.0625,4.65625 -0.71875,19.65625 -2.84375,33.1875 -2.5,8.9375 -7.875,17.5 -8.90625,8.9375 -18.59375,12.84375 -20.71875,6.78125 2.125,10.28125 14.34375,-1.71875 z"
         id="path4103"
         inkscape:connector-curvature="0" />
      <path
         style="fill:#005e91;fill-opacity:1;stroke:#000000;stroke-width:0.30000001;stroke-linecap:butt;stroke-linejoin:miter;stroke-miterlimit:4;stroke-opacity:1;stroke-dasharray:none"
         d="M 471.59375,468.15625 455,482.28125 l 0.59375,1.875 c 0,0 0.43637,4.15544 0.9375,10.84375 0.50113,6.68831 1.04513,15.91426 1.21875,26 0.0868,5.04287 0.0879,10.28731 -0.0625,15.5625 -0.15044,5.27519 -0.44623,10.56011 -0.9375,15.65625 -0.49127,5.09614 -1.18933,10.02552 -2.125,14.53125 -0.46784,2.25287 -0.99539,4.37811 -1.59375,6.40625 -0.59836,2.02814 -1.25817,3.93552 -2,5.6875 0,0 -0.84998,2.35983 -2.5625,5.8125 -0.85626,1.72633 -1.91956,3.71148 -3.21875,5.84375 -1.29919,2.13227 -2.81052,4.39162 -4.5625,6.625 -1.75198,2.23338 -3.75411,4.43907 -5.96875,6.46875 -1.10732,1.01484 -2.27517,1.99949 -3.5,2.90625 -1.22483,0.90676 -2.50017,1.73943 -3.84375,2.5 -1.34358,0.76057 -2.75519,1.45496 -4.21875,2.03125 -1.46356,0.57629 -2.97772,1.05235 -4.5625,1.40625 -1.58478,0.3539 -3.23028,0.56284 -4.9375,0.65625 -1.70722,0.0934 -3.4816,0.0489 -5.3125,-0.15625 l -11.53125,3.6875 5.46875,-0.65625 17.4375,1.03125 c 0,0 0.68901,0.30933 2.09375,0.625 1.40474,0.31567 3.53395,0.62563 6.375,0.5625 1.42053,-0.0316 3.02698,-0.14977 4.8125,-0.40625 1.78552,-0.25648 3.75178,-0.65054 5.90625,-1.21875 2.15447,-0.56821 4.47265,-1.3145 7,-2.28125 2.52735,-0.96675 5.25206,-2.14166 8.15625,-3.59375 1.45209,-0.72605 2.80569,-1.70145 4.0625,-2.84375 1.25681,-1.1423 2.42453,-2.47174 3.5,-3.96875 1.07547,-1.49701 2.06069,-3.14734 2.96875,-4.9375 0.90806,-1.79016 1.74541,-3.72823 2.5,-5.75 0.75459,-2.02177 1.41619,-4.12068 2.03125,-6.3125 0.61506,-2.19182 1.16679,-4.44968 1.65625,-6.75 0.97893,-4.60064 1.72109,-9.36592 2.28125,-14.03125 0.56016,-4.66533 0.93462,-9.23114 1.1875,-13.46875 0.25288,-4.23761 0.3804,-8.15126 0.4375,-11.46875 0.11419,-6.63497 -0.0312,-10.9375 -0.0312,-10.9375 l -3.0625,-62.0625 z"
         id="path4105"
         inkscape:connector-curvature="0" />
      <path
         style="fill:#ffae00;fill-opacity:1;stroke:#000000;stroke-width:0.30000001;stroke-linecap:butt;stroke-linejoin:miter;stroke-miterlimit:4;stroke-opacity:1;stroke-dasharray:none"
         d="m 494.21875,448.9375 -22.625,19.21875 3.0625,62.0625 c 0,0 0.14544,4.30253 0.0312,10.9375 -0.0571,3.31749 -0.18462,7.23114 -0.4375,11.46875 -0.25288,4.23761 -0.62734,8.80342 -1.1875,13.46875 -0.56016,4.66533 -1.30232,9.43061 -2.28125,14.03125 -0.48946,2.30032 -1.04119,4.55818 -1.65625,6.75 -0.61506,2.19182 -1.27666,4.29073 -2.03125,6.3125 -0.75459,2.02177 -1.59194,3.95984 -2.5,5.75 -0.90806,1.79016 -1.89328,3.44049 -2.96875,4.9375 -1.07547,1.49701 -2.24319,2.82645 -3.5,3.96875 -1.25681,1.1423 -2.61041,2.1177 -4.0625,2.84375 -2.90419,1.45209 -5.6289,2.627 -8.15625,3.59375 -2.52735,0.96675 -4.84553,1.71304 -7,2.28125 -2.15447,0.56821 -4.12073,0.96227 -5.90625,1.21875 -1.78552,0.25648 -3.39197,0.37468 -4.8125,0.40625 -2.84105,0.0631 -4.97026,-0.24683 -6.375,-0.5625 C 420.40771,617.30933 419.7187,617 419.7187,617 l -17.4375,-1.03125 -19.8125,2.375 0.75,3.65625 36.59375,2.15625 c 8.92857,23.39285 30.90625,20 30.90625,20 46.42857,-3.57143 43.5,-55.375 43.5,-55.375 l 0,-139.84375 z"
         id="path4107"
         inkscape:connector-curvature="0" />
    </g>
    <g
       id="g4109"
       transform="matrix(-1,0,0,1,747.72276,0)">
      <g
         id="g4111">
        <path
           id="path4113"
           d="m 451.09375,486.28125 -3.53125,-46.34375 -16.65625,14.75 -0.90625,1.96875 12.15625,37.65625 8.9375,-8.03125 z"
           style="fill:#cb0300;fill-opacity:1;stroke:#000000;stroke-width:0.2;stroke-linecap:butt;stroke-linejoin:miter;stroke-miterlimit:4;stroke-opacity:1;stroke-dasharray:none"
           inkscape:connector-curvature="0" />
        <path
           id="path4115"
           d="m 461.625,427.5 -14.0625,12.4375 3.53125,46.34375 L 463.8125,474.8125 461.625,427.5 z"
           style="fill:#005e91;fill-opacity:1;stroke:#000000;stroke-width:0.2;stroke-linecap:butt;stroke-linejoin:miter;stroke-miterlimit:4;stroke-opacity:1;stroke-dasharray:none"
           inkscape:connector-curvature="0" />
        <path
           id="path4117"
           d="m 461.625,427.5 2.1875,47.3125 12.25,-11.03125 -0.53125,-48.5625 L 461.625,427.5 z"
           style="fill:#ffae00;fill-opacity:1;stroke:#000000;stroke-width:0.2;stroke-linecap:butt;stroke-linejoin:miter;stroke-miterlimit:4;stroke-opacity:1;stroke-dasharray:none"
           inkscape:connector-curvature="0" />
      </g>
      <g
         id="g4119">
        <path
           style="fill:none;stroke:#b5bfb7;stroke-width:3.79999995;stroke-linecap:butt;stroke-linejoin:miter;stroke-miterlimit:4;stroke-opacity:1;stroke-dasharray:none"
           d="m 423.75,460.71932 55.17857,-48.21428"
           id="path4121"
           inkscape:connector-curvature="0" />
        <path
           inkscape:connector-curvature="0"
           id="path4123"
           d="m 476.33929,399.68361 c 0,0 0.98214,14.10714 13.83928,16.42857 0,0 -19.82142,3.39286 -13.83928,-16.42857 z"
           style="fill:#b5bfb7;fill-opacity:1;stroke:#797979;stroke-width:1px;stroke-linecap:butt;stroke-linejoin:miter;stroke-opacity:1" />
        <path
           inkscape:connector-curvature="0"
           id="path4125"
           d="m 480.80357,409.23718 2.76786,-10 13.75,-3.48214 -5.08929,13.75 -10,1.60714 z"
           style="fill:#b5bfb7;fill-opacity:1;stroke:#797979;stroke-width:1px;stroke-linecap:butt;stroke-linejoin:miter;stroke-opacity:1" />
        <path
           inkscape:connector-curvature="0"
           id="path4127"
           d="m 481.78572,410.13004 14.73214,-13.75"
           style="fill:#b5bfb7;fill-opacity:1;stroke:#797979;stroke-width:1px;stroke-linecap:butt;stroke-linejoin:miter;stroke-opacity:1" />
      </g>
    </g>
    <g
       id="g4091">
      <path
         inkscape:connector-curvature="0"
         id="path4075"
         d="m 303.21429,428.25504 c 0,0 -7.14286,10 -2.85715,16.96428 6.25,-6.42858 2.85715,-16.96428 2.85715,-16.96428 z"
         style="fill:#006812;fill-opacity:1;stroke:#0e5012;stroke-width:1px;stroke-linecap:butt;stroke-linejoin:miter;stroke-opacity:1" />
      <path
         inkscape:connector-curvature="0"
         id="path4077"
         d="m 315.35714,439.68361 c 0,0 -15.17857,3.39286 -13.75,11.07143 6.96428,1.60714 13.75,-11.07143 13.75,-11.07143 z"
         style="fill:#006812;fill-opacity:1;stroke:#0e5012;stroke-width:1px;stroke-linecap:butt;stroke-linejoin:miter;stroke-opacity:1" />
      <path
         inkscape:connector-curvature="0"
         id="path4079"
         d="m 293.92857,432.18361 c 0,0 5.71429,15.17857 -0.71428,18.57143 -6.42857,-5.71428 0.71428,-18.57143 0.71428,-18.57143 z"
         style="fill:#006812;fill-opacity:1;stroke:#0e5012;stroke-width:1px;stroke-linecap:butt;stroke-linejoin:miter;stroke-opacity:1" />
      <path
         inkscape:connector-curvature="0"
         id="path4081"
         d="m 284.64286,450.93361 c 0,0 9.64285,10.35714 8.57143,15 -1.07143,4.64286 -10.71429,-5 -8.57143,-15 z"
         style="fill:#006812;fill-opacity:1;stroke:#0e5012;stroke-width:1px;stroke-linecap:butt;stroke-linejoin:miter;stroke-opacity:1" />
      <path
         inkscape:connector-curvature="0"
         id="path4083"
         d="m 307.5,457.00504 c 0,0 -5.35714,5.35714 -9.28571,4.46428 -3.92858,-0.89285 -4.82143,2.32143 -4.82143,2.32143 0,0 -2.14286,4.10715 4.46428,4.46429 6.60715,0.35714 9.64286,-11.25 9.64286,-11.25 z"
         style="fill:#006812;fill-opacity:1;stroke:#0e5012;stroke-width:1px;stroke-linecap:butt;stroke-linejoin:miter;stroke-opacity:1" />
      <path
         inkscape:connector-curvature="0"
         id="path4085"
         d="m 298.39286,453.96932 c 0,0 -5.35715,1.42858 -5.17857,7.14286 0.17857,5.71429 5.71428,-0.89286 5.17857,-7.14286 z"
         style="fill:#006812;fill-opacity:1;stroke:#0e5012;stroke-width:1px;stroke-linecap:butt;stroke-linejoin:miter;stroke-opacity:1" />
      <path
         inkscape:connector-curvature="0"
         id="path4087"
         d="m 280.71429,459.86218 c 0,0 11.25,10 6.96428,16.96429 -4.28571,6.96428 -8.21428,-11.25 -6.96428,-16.96429 z"
         style="fill:#006812;fill-opacity:1;stroke:#0e5012;stroke-width:1px;stroke-linecap:butt;stroke-linejoin:miter;stroke-opacity:1" />
      <path
         inkscape:connector-curvature="0"
         id="path4089"
         d="m 289.28571,476.11218 c 0,0 5,-5.71428 12.14286,-5.17857 0,0 -0.17858,8.03571 -12.14286,5.17857 z"
         style="fill:#006812;fill-opacity:1;stroke:#0e5012;stroke-width:1px;stroke-linecap:butt;stroke-linejoin:miter;stroke-opacity:1" />
    </g>
    <g
       id="g4129"
       transform="matrix(-1,0,0,1,747.72276,0)">
      <path
         style="fill:none;stroke:#b5bfb7;stroke-width:3.79999995;stroke-linecap:butt;stroke-linejoin:miter;stroke-miterlimit:4;stroke-opacity:1;stroke-dasharray:none"
         d="m 443.75,492.71932 55.17857,-48.21428"
         id="path4131"
         inkscape:connector-curvature="0" />
      <path
         style="fill:#b5bfb7;fill-opacity:1;stroke:#838383;stroke-width:1px;stroke-linecap:butt;stroke-linejoin:miter;stroke-opacity:1"
         d="m 498.44715,454.47814 c 6.18718,-3.21986 1.26269,-8.33375 1.26269,-8.33375 l 1.57836,-1.13643 c 0,0 6.25032,4.23002 9.15451,-0.69448 0,0 4.92449,4.86136 0,10.16466 -4.92449,5.3033 -11.99556,0 -11.99556,0 z"
         id="path4133"
         inkscape:connector-curvature="0" />
      <path
         style="fill:#b5bfb7;fill-opacity:1;stroke:#838383;stroke-width:1px;stroke-linecap:butt;stroke-linejoin:miter;stroke-opacity:1"
         d="m 500.15178,441.97751 4.73509,-11.74303 13.95273,-3.6618 -5.55584,14.01587 -11.93242,2.39911 z"
         id="path4135"
         inkscape:connector-curvature="0" />
      <path
         style="fill:#b5bfb7;fill-opacity:1;stroke:#838383;stroke-width:1px;stroke-linecap:butt;stroke-linejoin:miter;stroke-opacity:1"
         d="m 500.90939,442.48258 18.11962,-15.97304"
         id="path4137"
         inkscape:connector-curvature="0" />
      <path
         sodipodi:type="arc"
         style="fill:#b5bfb7;fill-opacity:1;fill-rule:evenodd;stroke:#7d847e;stroke-width:1.5;stroke-linecap:round;stroke-linejoin:round;stroke-miterlimit:4;stroke-opacity:1;stroke-dasharray:none;stroke-dashoffset:0"
         id="path4139"
         sodipodi:cx="499.33102"
         sodipodi:cy="443.3349"
         sodipodi:rx="3.0935922"
         sodipodi:ry="3.1882939"
         d="m 502.42462,443.3349 c 0,1.76085 -1.38505,3.18829 -3.0936,3.18829 -1.70854,0 -3.09359,-1.42744 -3.09359,-3.18829 0,-1.76085 1.38505,-3.18829 3.09359,-3.18829 1.70855,0 3.0936,1.42744 3.0936,3.18829 z" />
    </g>
    <g
       id="g4200"
       style="stroke-width:0.1;stroke-miterlimit:4;stroke-dasharray:none">
      <path
         id="path4190"
         d="m 412.46875,518.40625 1.625,1.46875 c 0,0 5.37947,1.78125 6.09375,1.78125 0.71429,0 8.21875,0.875 8.21875,0.875 l 4.28125,0.53125 4.8125,0.90625 4.6875,0.5 0.6875,-4.71875 -0.6875,0 -3.03125,0.5 -3.03125,-0.5 -3.28125,-1 -4.28125,0 -1.53125,-1.78125 -2.5,-0.25 c 0,0 -5.8336,0.25 -6.84375,0.25 -1.01015,0 -3.03125,0.53125 -3.03125,0.53125 l -2.1875,0.90625 z"
         style="fill:#fbffff;fill-opacity:1;stroke:#000000;stroke-width:0.1;stroke-linecap:butt;stroke-linejoin:miter;stroke-miterlimit:4;stroke-opacity:1;stroke-dasharray:none"
         inkscape:connector-curvature="0" />
      <path
         id="path4181"
         d="m 359.28125,499.875 c -0.71429,0.17857 -4.8125,0.6875 -4.8125,0.6875 0,0 -1.61608,0.71428 -2.6875,1.25 C 350.70982,502.34821 347.5,504.5 347.5,504.5 c 0,0 -0.57589,0.28571 -1.3125,0.53125 -0.73661,0.24554 -1.625,0.46429 -2.25,0.375 -0.625,-0.0893 -1.38393,-0.48661 -2.03125,-1 -0.64732,-0.51339 -1.19643,-1.15179 -1.375,-1.6875 -0.17857,-0.53571 -0.31696,-1.10268 -0.5625,-1.59375 -0.24554,-0.49107 -0.59375,-0.91517 -1.21875,-1.09375 -0.625,-0.17857 -1.38393,0.12946 -2.65625,0.6875 -1.27232,0.55804 -3.07142,1.38392 -5.75,2.1875 -2.67857,0.80357 -4.23661,1.49554 -5.375,2.03125 -1.13839,0.53571 -1.83036,0.91071 -2.8125,1 -1.96429,0.17857 -6.4375,0.875 -6.4375,0.875 l -5.90625,0.375 -4.15625,-1.03125 -0.46875,24.6875 5.9375,0.53125 13.125,1.53125 c 0,0 5.00983,0.0631 10.25,0 2.62008,-0.0316 5.28303,-0.10037 7.4375,-0.21875 2.15447,-0.11838 3.77617,-0.30996 4.28125,-0.5625 0.50508,-0.25254 2.12284,-0.52839 4.28125,-0.8125 2.15841,-0.28411 4.8635,-0.55996 7.5625,-0.8125 5.398,-0.50508 10.77237,-0.90625 11.65625,-0.90625 l 18.1875,0 17.9375,0 c 2.0203,0 14.875,-1.5 14.875,-1.5 l 13.40625,1.5 7,2.15625 1.0625,-7.28125 -4.6875,-0.5 -4.8125,-0.90625 -4.28125,-0.53125 c 0,0 -7.50446,-0.875 -8.21875,-0.875 -0.71428,0 -6.09375,-1.78125 -6.09375,-1.78125 l -1.625,-1.46875 -0.84375,0.34375 -3.53125,-0.25 c 0,0 -3.2711,-0.49746 -4.28125,-0.75 -1.01015,-0.25254 -7.0625,-2.28125 -7.0625,-2.28125 l -7.34375,-3.28125 c 0,0 -5.29981,-4.04981 -6.5625,-5.3125 -0.29503,-0.29503 -0.40964,-0.64003 -0.65625,-0.9375 l -3.09375,0.53125 -7.125,-1.78125 -9.28125,-4.8125 c 0,0 -2.69197,-0.17857 -3.40625,0 z"
         style="fill:#583d20;fill-opacity:1;stroke:#000000;stroke-width:0.1;stroke-linecap:butt;stroke-linejoin:miter;stroke-miterlimit:4;stroke-opacity:1;stroke-dasharray:none"
         inkscape:connector-curvature="0" />
      <path
         id="path4164"
         d="m 305.65625,506.15625 4.15625,1.03125 5.90625,-0.375 c 0,0 4.47321,-0.69643 6.4375,-0.875 0.98214,-0.0893 1.67411,-0.46429 2.8125,-1 1.13839,-0.53571 2.69643,-1.22768 5.375,-2.03125 2.67858,-0.80358 4.47768,-1.62946 5.75,-2.1875 1.27232,-0.55804 2.03125,-0.86607 2.65625,-0.6875 0.625,0.17858 0.97321,0.60268 1.21875,1.09375 0.24554,0.49107 0.38393,1.05804 0.5625,1.59375 0.17857,0.53571 0.72768,1.17411 1.375,1.6875 0.64732,0.51339 1.40625,0.91071 2.03125,1 0.625,0.0893 1.51339,-0.12946 2.25,-0.375 C 346.92411,504.78571 347.5,504.5 347.5,504.5 c 0,0 3.20982,-2.15179 4.28125,-2.6875 1.07142,-0.53572 2.6875,-1.25 2.6875,-1.25 0,0 4.09821,-0.50893 4.8125,-0.6875 0.71428,-0.17857 3.40625,0 3.40625,0 l 9.28125,4.8125 7.125,1.78125 3.09375,-0.53125 c -0.80883,-0.97565 -1.54441,-1.93256 -2.125,-3.09375 -0.37881,-0.75761 -0.99334,-1.27554 -1.65625,-1.84375 -0.66291,-0.56821 -1.36992,-1.17735 -1.875,-2.1875 -0.50508,-1.01015 -1.11929,-1.83614 -1.6875,-2.59375 -0.56821,-0.75761 -1.09121,-1.46114 -1.34375,-2.21875 -0.12627,-0.37881 -0.46431,-0.75046 -0.90625,-1.09375 -0.44194,-0.34329 -0.99429,-0.66886 -1.5625,-0.96875 -1.13642,-0.59978 -2.33867,-1.08995 -2.84375,-1.46875 -0.50507,-0.37881 -1.95384,-0.90213 -3.4375,-1.3125 -1.48366,-0.41037 -2.99365,-0.71875 -3.625,-0.71875 l -4.28125,0 -4.3125,0 c 0,0 -5.30235,-1.24493 -6.3125,-1.75 -0.50508,-0.25254 -1.42798,-0.52808 -2.375,-0.84375 -0.94702,-0.31567 -1.90117,-0.68242 -2.40625,-1.1875 -0.50508,-0.50508 -1.95416,-0.87246 -3.40625,-1.125 -1.45209,-0.25254 -2.90117,-0.375 -3.40625,-0.375 -0.50508,0 -1.95542,0.55679 -3.28125,1.125 -1.32583,0.56821 -2.53125,1.125 -2.53125,1.125 l -3.28125,3.53125 -3.8125,0.25 -2.25,0 -6.3125,4.3125 -4.0625,-0.25 -2.5625,-0.0312 -0.71875,4.8125 -0.15625,8.125 z"
         style="fill:#fbffff;fill-opacity:1;stroke:#000000;stroke-width:0.1;stroke-linecap:butt;stroke-linejoin:miter;stroke-miterlimit:4;stroke-opacity:1;stroke-dasharray:none"
         inkscape:connector-curvature="0" />
    </g>
    <g
       id="g4056">
      <g
         id="g4051">
        <path
           inkscape:connector-curvature="0"
           style="fill:#cb0300;fill-opacity:1;stroke:#000000;stroke-width:0.2;stroke-linecap:butt;stroke-linejoin:miter;stroke-miterlimit:4;stroke-opacity:1;stroke-dasharray:none"
           d="m 451.09375,486.28125 -3.53125,-46.34375 -16.65625,14.75 -0.90625,1.96875 12.15625,37.65625 8.9375,-8.03125 z"
           id="path4041" />
        <path
           inkscape:connector-curvature="0"
           style="fill:#005e91;fill-opacity:1;stroke:#000000;stroke-width:0.2;stroke-linecap:butt;stroke-linejoin:miter;stroke-miterlimit:4;stroke-opacity:1;stroke-dasharray:none"
           d="m 461.625,427.5 -14.0625,12.4375 3.53125,46.34375 L 463.8125,474.8125 461.625,427.5 z"
           id="path4038" />
        <path
           inkscape:connector-curvature="0"
           style="fill:#ffae00;fill-opacity:1;stroke:#000000;stroke-width:0.2;stroke-linecap:butt;stroke-linejoin:miter;stroke-miterlimit:4;stroke-opacity:1;stroke-dasharray:none"
           d="m 461.625,427.5 2.1875,47.3125 12.25,-11.03125 -0.53125,-48.5625 L 461.625,427.5 z"
           id="path4026" />
      </g>
      <g
         id="g3994">
        <path
           inkscape:connector-curvature="0"
           id="path3986"
           d="m 423.75,460.71932 55.17857,-48.21428"
           style="fill:none;stroke:#b5bfb7;stroke-width:3.79999995;stroke-linecap:butt;stroke-linejoin:miter;stroke-miterlimit:4;stroke-opacity:1;stroke-dasharray:none" />
        <path
           style="fill:#b5bfb7;fill-opacity:1;stroke:#797979;stroke-width:1px;stroke-linecap:butt;stroke-linejoin:miter;stroke-opacity:1"
           d="m 476.33929,399.68361 c 0,0 0.98214,14.10714 13.83928,16.42857 0,0 -19.82142,3.39286 -13.83928,-16.42857 z"
           id="path3988"
           inkscape:connector-curvature="0" />
        <path
           style="fill:#b5bfb7;fill-opacity:1;stroke:#797979;stroke-width:1px;stroke-linecap:butt;stroke-linejoin:miter;stroke-opacity:1"
           d="m 480.80357,409.23718 2.76786,-10 13.75,-3.48214 -5.08929,13.75 -10,1.60714 z"
           id="path3990"
           inkscape:connector-curvature="0" />
        <path
           style="fill:#b5bfb7;fill-opacity:1;stroke:#797979;stroke-width:1px;stroke-linecap:butt;stroke-linejoin:miter;stroke-opacity:1"
           d="m 481.78572,410.13004 14.73214,-13.75"
           id="path3992"
           inkscape:connector-curvature="0" />
      </g>
    </g>
    <g
       id="g3910">
      <path
         inkscape:connector-curvature="0"
         id="path4067"
         d="m 466.42857,472.8979 c -1.60714,-46.96429 -9.28571,-59.10715 -9.28571,-59.10715 0,0 10.71428,56.42857 3.39286,69.64286 z"
         style="fill:#006812;fill-opacity:1;stroke:#0c3d10;stroke-width:1px;stroke-linecap:butt;stroke-linejoin:miter;stroke-opacity:1" />
      <path
         inkscape:connector-curvature="0"
         id="path4069"
         d="m 464.46429,479.32647 c 5.89285,-34.82143 -18.03572,-67.32143 -18.03572,-67.32143 0,0 23.39286,49.46428 11.78572,71.25 z"
         style="fill:#006812;fill-opacity:1;stroke:#0c3d10;stroke-width:1px;stroke-linecap:butt;stroke-linejoin:miter;stroke-opacity:1" />
      <path
         inkscape:connector-curvature="0"
         id="path4071"
         d="m 464.64286,478.07647 c 2.32143,-33.39286 -27.5,-70 -27.5,-70 0,0 32.85714,61.42857 19.10714,79.46428 z"
         style="fill:#006812;fill-opacity:1;stroke:#0c3d10;stroke-width:1px;stroke-linecap:butt;stroke-linejoin:miter;stroke-opacity:1" />
      <path
         inkscape:connector-curvature="0"
         id="path4073"
         d="m 461.60714,481.82647 c 10.71429,-19.46429 -27.5,-66.42857 -27.5,-66.42857 0,0 32.85715,51.07142 20.89286,71.96428 z"
         style="fill:#006812;fill-opacity:1;stroke:#0c3d10;stroke-width:1px;stroke-linecap:butt;stroke-linejoin:miter;stroke-opacity:1" />
    </g>
    <path
       style="fill:#592b01;fill-opacity:1;stroke:#000000;stroke-width:1px;stroke-linecap:butt;stroke-linejoin:miter;stroke-opacity:1"
       d="m 350.80357,368.25504 c 0,0 4.28572,5.625 9.64286,0 5.35714,-5.625 19.28571,-1.42857 19.28571,-1.42857 0,0 7.67858,9.10714 15.26786,1.42857 7.58929,-7.67857 5.71429,-5 5.71429,-5 0,0 2.23214,0.53571 2.58928,-9.73214 0.35715,-10.26786 30.625,-7.05358 30.625,-7.05358 0,0 56.25,9.28572 86.42857,22.14286 0,0 15.89286,6.51786 2.67858,7.58929 0,0 -3.30358,-0.71429 -2.58929,2.14285 0.71429,2.85715 -7.5,0.53572 -7.5,0.53572 0,0 1.875,-0.35714 -2.85714,0.625 0,0 -0.17857,2.94643 -3.125,2.94643 -2.94643,0 -7.23215,0.17857 -7.5,-1.07143 -0.26786,-1.25 -4.28572,-1.07143 -4.55357,0 -0.26786,1.07143 -0.80358,2.58928 -4.10715,2.41071 -3.30357,-0.17857 -5.26785,0.17857 -7.5,-2.05357 -2.23214,-2.23214 -6.96428,1.78572 -6.96428,1.78572 l -2.76786,0 c 0,0 -5.89286,-2.67858 -7.05357,-1.33929 -1.16072,1.33929 -3.75,0.98214 -3.75,0.98214 0,0 -2.32143,0.35715 -3.03572,-0.80357 -0.71428,-1.16071 -2.67857,1.33929 -2.67857,1.33929 l -2.32143,0.98214 -2.23214,-0.44643 c 0,0 -2.14286,-0.53571 -2.14286,-0.0893 0,0.44642 -1.33928,3.21428 -3.39285,3.66071 -2.05357,0.44643 -4.55357,-0.625 -4.55357,-0.625 l -2.14286,0.17857 c 0,0 -0.44643,2.23214 -3.39286,2.58929 -2.94643,0.35714 -3.66071,-0.53572 -3.66071,-0.53572 l -1.25,0.80357 -0.625,2.14286 c 0,0 -2.23215,1.60716 -3.03572,1.51788 -0.80357,-0.0893 -2.32143,-0.26786 -2.32143,-0.26786 l -0.35714,2.5 c 0,0 -2.32143,1.875 -3.39286,1.60714 -1.07142,-0.26785 -2.85714,-1.51785 -2.85714,-1.51785 l -1.875,0.98214 c 0,0 0.44643,3.48214 -2.76786,2.94643 -3.21428,-0.53572 -2.23214,-0.53572 -2.23214,-0.53572 l -0.71428,2.14286 -1.33929,2.23214 -1.875,0.17858 -3.66071,-1.33929 -1.33929,-0.71429 6.875,7.32143 4.19643,3.66072 c 0,0 5.95941,2.88961 -5.15227,9.70814 -11.11168,6.81853 -14.14214,5.42957 -14.14214,5.42957 l -18.05647,-1.76777 -1.38896,-2.65165 -0.50508,-12.87944 -2.27284,0 c 0,0 -3.03046,8.20748 -6.43973,5.6821 -3.40926,-2.52538 -3.40926,-3.40926 -3.40926,-3.40926 l -0.37881,-5.42957 -1.26269,-2.52538 c 0,0 -1.89403,-0.88389 -1.76777,2.65165 0,0 -2.27755,1.62018 -3.61684,-0.25482 -1.33928,-1.875 -0.53571,-1.42857 -0.53571,-1.42857 0,0 -1.25,-1.42857 -2.67857,0.26785 -1.42858,1.69643 -3.48215,1.96429 -3.48215,1.96429 0,0 -2.14285,0.26786 -2.05357,-2.58929 0.0893,-2.85714 -3.83928,0.53572 -3.83928,0.53572 0,0 -1.96429,0.53571 -1.96429,-2.32143 0,-2.85714 -1.25,-2.23214 -1.25,-2.23214 0,0 -1.875,2.23214 -2.94643,2.14285 -1.07143,-0.0893 -2.85714,0.0893 -3.48214,-1.33928 -0.625,-1.42857 -0.625,-2.32143 -0.625,-2.32143 l -1.16072,-0.98214 c 0,0 -1.25,1.96428 -2.58928,1.96428 -1.33929,0 -2.23214,-1.42857 -2.23214,-1.42857 l -0.89286,-1.96428 -1.16072,-1.51786 c 0,0 -2.23214,2.67857 -3.83928,2.41071 -1.60714,-0.26785 -2.5,-2.41071 -2.5,-2.41071 l 0,-1.78572 c 0,0 -5.08929,0.53572 -6.875,-4.28571 0,0 -6.60714,0.89286 -7.41072,-2.67857 0,0 -9.19642,1.42857 -11.69642,-3.39286 0,0 -5.08929,0.80357 -7.05358,-1.78571 0,0 -7.41071,2.5 -9.73214,-0.44643 0,0 -8.66071,3.92857 -11.42857,-0.0893 0,0 -14.64286,3.66073 -15.71429,-0.5357 0,0 -14.30981,3.33444 -15.5725,-1.96886 0,0 -11.36421,2.71479 -10.29093,-2.90419 0,0 -15.27855,0.82075 -1.64149,-6.31345 13.63705,-7.1342 27.21098,-10.10153 27.21098,-10.10153 0,0 69.13231,-20.89753 89.33536,-11.04854 0,0 4.41942,1.95717 3.72494,8.7757 0,0 -0.82075,2.27284 2.52538,5.42957 3.34613,3.15673 6.40469,5.0063 6.40469,5.0063 z"
       id="path3789"
       inkscape:connector-curvature="0"
       sodipodi:nodetypes="cscscscccscc" />
    <path
       style="fill:#fdb201;fill-opacity:1;stroke:none"
       d="m 312.85714,466.29075 c 0,0 58.21429,-33.92857 120,-2.14285 l 3.57143,11.78571 c 0,0 -63.92857,-32.85714 -125.71428,2.85714 z"
       id="path3007"
       inkscape:connector-curvature="0" />
    <g
       id="g4021"
       style="stroke:#000000;stroke-width:0.30000001;stroke-miterlimit:4;stroke-opacity:1;stroke-dasharray:none">
      <path
         id="path4019"
         d="m 396.8125,616.625 11.53125,-3.6875 c 1.8309,0.20519 3.60528,0.24966 5.3125,0.15625 1.70722,-0.0934 3.35272,-0.30235 4.9375,-0.65625 1.58478,-0.3539 3.09894,-0.82996 4.5625,-1.40625 1.46356,-0.57629 2.87517,-1.27068 4.21875,-2.03125 1.34358,-0.76057 2.61892,-1.59324 3.84375,-2.5 1.22483,-0.90676 2.39268,-1.89141 3.5,-2.90625 2.21464,-2.02968 4.21677,-4.23537 5.96875,-6.46875 1.75198,-2.23338 3.26331,-4.49273 4.5625,-6.625 1.29919,-2.13227 2.36249,-4.11742 3.21875,-5.84375 1.71252,-3.45267 2.5625,-5.8125 2.5625,-5.8125 0.74183,-1.75198 1.40164,-3.65936 2,-5.6875 0.59836,-2.02814 1.12591,-4.15338 1.59375,-6.40625 0.93567,-4.50573 1.63373,-9.43511 2.125,-14.53125 0.49127,-5.09614 0.78706,-10.38106 0.9375,-15.65625 0.15044,-5.27519 0.14931,-10.51963 0.0625,-15.5625 -0.17362,-10.08574 -0.71762,-19.31169 -1.21875,-26 -0.50113,-6.68831 -0.9375,-10.84375 -0.9375,-10.84375 l -0.59375,-1.875 -12.3125,10.4375 -1.25,2.84375 1.0625,4.65625 -0.71875,19.65625 -2.84375,33.1875 -2.5,8.9375 -7.875,17.5 -8.90625,8.9375 -18.59375,12.84375 -20.71875,6.78125 2.125,10.28125 14.34375,-1.71875 z"
         style="fill:#cb0300;fill-opacity:1;stroke:#000000;stroke-width:0.30000001;stroke-linecap:butt;stroke-linejoin:miter;stroke-miterlimit:4;stroke-opacity:1;stroke-dasharray:none"
         inkscape:connector-curvature="0" />
      <path
         id="path4016"
         d="M 471.59375,468.15625 455,482.28125 l 0.59375,1.875 c 0,0 0.43637,4.15544 0.9375,10.84375 0.50113,6.68831 1.04513,15.91426 1.21875,26 0.0868,5.04287 0.0879,10.28731 -0.0625,15.5625 -0.15044,5.27519 -0.44623,10.56011 -0.9375,15.65625 -0.49127,5.09614 -1.18933,10.02552 -2.125,14.53125 -0.46784,2.25287 -0.99539,4.37811 -1.59375,6.40625 -0.59836,2.02814 -1.25817,3.93552 -2,5.6875 0,0 -0.84998,2.35983 -2.5625,5.8125 -0.85626,1.72633 -1.91956,3.71148 -3.21875,5.84375 -1.29919,2.13227 -2.81052,4.39162 -4.5625,6.625 -1.75198,2.23338 -3.75411,4.43907 -5.96875,6.46875 -1.10732,1.01484 -2.27517,1.99949 -3.5,2.90625 -1.22483,0.90676 -2.50017,1.73943 -3.84375,2.5 -1.34358,0.76057 -2.75519,1.45496 -4.21875,2.03125 -1.46356,0.57629 -2.97772,1.05235 -4.5625,1.40625 -1.58478,0.3539 -3.23028,0.56284 -4.9375,0.65625 -1.70722,0.0934 -3.4816,0.0489 -5.3125,-0.15625 l -11.53125,3.6875 5.46875,-0.65625 17.4375,1.03125 c 0,0 0.68901,0.30933 2.09375,0.625 1.40474,0.31567 3.53395,0.62563 6.375,0.5625 1.42053,-0.0316 3.02698,-0.14977 4.8125,-0.40625 1.78552,-0.25648 3.75178,-0.65054 5.90625,-1.21875 2.15447,-0.56821 4.47265,-1.3145 7,-2.28125 2.52735,-0.96675 5.25206,-2.14166 8.15625,-3.59375 1.45209,-0.72605 2.80569,-1.70145 4.0625,-2.84375 1.25681,-1.1423 2.42453,-2.47174 3.5,-3.96875 1.07547,-1.49701 2.06069,-3.14734 2.96875,-4.9375 0.90806,-1.79016 1.74541,-3.72823 2.5,-5.75 0.75459,-2.02177 1.41619,-4.12068 2.03125,-6.3125 0.61506,-2.19182 1.16679,-4.44968 1.65625,-6.75 0.97893,-4.60064 1.72109,-9.36592 2.28125,-14.03125 0.56016,-4.66533 0.93462,-9.23114 1.1875,-13.46875 0.25288,-4.23761 0.3804,-8.15126 0.4375,-11.46875 0.11419,-6.63497 -0.0312,-10.9375 -0.0312,-10.9375 l -3.0625,-62.0625 z"
         style="fill:#005e91;fill-opacity:1;stroke:#000000;stroke-width:0.30000001;stroke-linecap:butt;stroke-linejoin:miter;stroke-miterlimit:4;stroke-opacity:1;stroke-dasharray:none"
         inkscape:connector-curvature="0" />
      <path
         id="path4009"
         d="m 494.21875,448.9375 -22.625,19.21875 3.0625,62.0625 c 0,0 0.14544,4.30253 0.0312,10.9375 -0.0571,3.31749 -0.18462,7.23114 -0.4375,11.46875 -0.25288,4.23761 -0.62734,8.80342 -1.1875,13.46875 -0.56016,4.66533 -1.30232,9.43061 -2.28125,14.03125 -0.48946,2.30032 -1.04119,4.55818 -1.65625,6.75 -0.61506,2.19182 -1.27666,4.29073 -2.03125,6.3125 -0.75459,2.02177 -1.59194,3.95984 -2.5,5.75 -0.90806,1.79016 -1.89328,3.44049 -2.96875,4.9375 -1.07547,1.49701 -2.24319,2.82645 -3.5,3.96875 -1.25681,1.1423 -2.61041,2.1177 -4.0625,2.84375 -2.90419,1.45209 -5.6289,2.627 -8.15625,3.59375 -2.52735,0.96675 -4.84553,1.71304 -7,2.28125 -2.15447,0.56821 -4.12073,0.96227 -5.90625,1.21875 -1.78552,0.25648 -3.39197,0.37468 -4.8125,0.40625 -2.84105,0.0631 -4.97026,-0.24683 -6.375,-0.5625 C 420.40771,617.30933 419.7187,617 419.7187,617 l -17.4375,-1.03125 -19.8125,2.375 0.75,3.65625 36.59375,2.15625 c 8.92857,23.39285 30.90625,20 30.90625,20 46.42857,-3.57143 43.5,-55.375 43.5,-55.375 l 0,-139.84375 z"
         style="fill:#ffae00;fill-opacity:1;stroke:#000000;stroke-width:0.30000001;stroke-linecap:butt;stroke-linejoin:miter;stroke-miterlimit:4;stroke-opacity:1;stroke-dasharray:none"
         inkscape:connector-curvature="0" />
    </g>
    <rect
       style="fill:#b28d61;fill-opacity:1;stroke:none"
       id="rect3907"
       width="17.857143"
       height="2.8571429"
       x="422.32144"
       y="622.7193" />
    <g
       id="g4000">
      <path
         inkscape:connector-curvature="0"
         id="path3974"
         d="m 443.75,492.71932 55.17857,-48.21428"
         style="fill:none;stroke:#b5bfb7;stroke-width:3.79999995;stroke-linecap:butt;stroke-linejoin:miter;stroke-miterlimit:4;stroke-opacity:1;stroke-dasharray:none" />
      <path
         inkscape:connector-curvature="0"
         id="path3980"
         d="m 498.44715,454.47814 c 6.18718,-3.21986 1.26269,-8.33375 1.26269,-8.33375 l 1.57836,-1.13643 c 0,0 6.25032,4.23002 9.15451,-0.69448 0,0 4.92449,4.86136 0,10.16466 -4.92449,5.3033 -11.99556,0 -11.99556,0 z"
         style="fill:#b5bfb7;fill-opacity:1;stroke:#838383;stroke-width:1px;stroke-linecap:butt;stroke-linejoin:miter;stroke-opacity:1" />
      <path
         inkscape:connector-curvature="0"
         id="path3982"
         d="m 500.15178,441.97751 4.73509,-11.74303 13.95273,-3.6618 -5.55584,14.01587 -11.93242,2.39911 z"
         style="fill:#b5bfb7;fill-opacity:1;stroke:#838383;stroke-width:1px;stroke-linecap:butt;stroke-linejoin:miter;stroke-opacity:1" />
      <path
         inkscape:connector-curvature="0"
         id="path3984"
         d="m 500.90939,442.48258 18.11962,-15.97304"
         style="fill:#b5bfb7;fill-opacity:1;stroke:#838383;stroke-width:1px;stroke-linecap:butt;stroke-linejoin:miter;stroke-opacity:1" />
      <path
         d="m 502.42462,443.3349 c 0,1.76085 -1.38505,3.18829 -3.0936,3.18829 -1.70854,0 -3.09359,-1.42744 -3.09359,-3.18829 0,-1.76085 1.38505,-3.18829 3.09359,-3.18829 1.70855,0 3.0936,1.42744 3.0936,3.18829 z"
         sodipodi:ry="3.1882939"
         sodipodi:rx="3.0935922"
         sodipodi:cy="443.3349"
         sodipodi:cx="499.33102"
         id="path3978"
         style="fill:#b5bfb7;fill-opacity:1;fill-rule:evenodd;stroke:#7d847e;stroke-width:1.5;stroke-linecap:round;stroke-linejoin:round;stroke-miterlimit:4;stroke-opacity:1;stroke-dasharray:none;stroke-dashoffset:0"
         sodipodi:type="arc" />
    </g>
    <path
       style="fill:#fad4a7;fill-opacity:1;stroke:#6f411b;stroke-width:1px;stroke-linecap:butt;stroke-linejoin:miter;stroke-opacity:1"
       d="m 373.96875,420.3125 c -13.88552,0.14441 -30.12031,4.86956 -47.6875,18.625 l -8.96875,11.75 c -8.49701,9.8886 -12.5,30.4375 -12.5,30.4375 0,0 -6.43845,43.92432 -0.125,73.21875 6.31346,29.29442 28.03125,42.9375 28.03125,42.9375 0,0 15.65688,11.23604 28.03125,12.625 C 373.12437,611.29521 374,618.25 374,618.25 l 2.03125,-0.125 c 1.76776,-6.69226 13.625,-9.09375 13.625,-9.09375 16.66752,-3.6618 26.28125,-12.75 26.28125,-12.75 22.22336,-19.69798 28.01094,-28.30059 30.03125,-82.34375 2.0203,-54.04317 -25,-75 -25,-75 0,0 -18.56775,-18.92069 -47,-18.625 z m 1.34375,6.25 c 6.28906,-0.1709 32.53125,0.9375 50.03125,29.375 20,32.5 12.5,80.34375 12.5,80.34375 0,0 0.74107,48.95089 -43.1875,63.59375 0,0 -20.00001,7.85714 -42.5,0 0,0 -27.875,-7.875 -37.875,-41.625 -10,-33.75 -2.5,-76.78125 -2.5,-76.78125 0,0 7.87053,-52.3125 62.15625,-54.8125 0,0 0.47656,-0.0693 1.375,-0.0937 z"
       id="path3857"
       inkscape:connector-curvature="0" />
    <path
       style="fill:#ffb25d;fill-opacity:1;stroke:#000000;stroke-width:1px;stroke-linecap:butt;stroke-linejoin:miter;stroke-opacity:1"
       d="m 339.46428,381.447 c 0,0 6.60715,1.98661 5.00001,3.9509 0,0 -3.93067,-0.94084 -6.4509,0.26785 -1.05199,0.50453 -1.91421,0.2576 -2.29414,0.12021 -0.41009,-0.1483 0.0843,-0.70058 0.0843,-0.70058 0,0 -0.26788,-1.13839 3.6607,-3.63838 z"
       id="path3781"
       inkscape:connector-curvature="0"
       sodipodi:nodetypes="ccsscc" />
    <path
       style="fill:#9e1e11;fill-opacity:1;stroke:#000000;stroke-width:1px;stroke-linecap:butt;stroke-linejoin:miter;stroke-opacity:1"
       d="m 336.12826,384.02 c 0,0 -3.78807,-1.8309 -1.07329,-4.79822 2.71479,-2.96732 1.32583,-5.36644 3.34613,-4.54569 2.02031,0.82075 6.31346,1.95717 6.31346,1.95717 l -3.97748,4.98763 z"
       id="path3785"
       inkscape:connector-curvature="0" />
    <path
       sodipodi:type="arc"
       style="fill:#ffffff;stroke:#000000;stroke-width:0.847;stroke-linecap:round;stroke-linejoin:round;stroke-miterlimit:4;stroke-opacity:1;stroke-dasharray:none;stroke-dashoffset:0"
       id="path3787"
       sodipodi:cx="369.65271"
       sodipodi:cy="380.61075"
       sodipodi:rx="11.806158"
       sodipodi:ry="10.985409"
       d="m 381.45887,380.61075 c 0,6.06707 -5.2858,10.98541 -11.80616,10.98541 -6.52036,0 -11.80616,-4.91834 -11.80616,-10.98541 0,-6.06708 5.2858,-10.98541 11.80616,-10.98541 6.52036,0 11.80616,4.91833 11.80616,10.98541 z" />
    <path
       style="fill:#f2daae;fill-opacity:1;stroke:#000000;stroke-width:1px;stroke-linecap:butt;stroke-linejoin:miter;stroke-opacity:1"
       d="m 340.26786,381.29075 c 0,0 3.66071,-8.39285 11.33928,-4.73214 0,0 3.75,1.16071 6.42858,-0.53571 2.67857,-1.69643 11.33928,-0.44643 11.33928,-0.44643 0,0 8.125,3.48214 -1.16071,7.94643 0,0 -2.05357,0.53571 -4.82143,-0.71429 -2.76786,-1.25 -7.58929,0.26786 -7.58929,0.26786 0,0 -2.76785,2.58928 -6.42857,2.5 -3.66071,-0.0893 -4.46428,-0.26786 -4.46428,-0.26786 0,0 0.17857,-1.87501 -4.64286,-4.01786 z"
       id="path3783"
       inkscape:connector-curvature="0" />
    <path
       style="fill:none;stroke:#000000;stroke-width:1px;stroke-linecap:butt;stroke-linejoin:miter;stroke-opacity:1"
       d="m 343.89381,379.53745 c 0,0 1.35739,-0.69448 1.48366,-0.78918 0.12627,-0.0947 1.23112,-0.88388 1.23112,-0.88388 l 1.26269,0.1894 c 0,0 -0.69448,0.69448 -0.88388,0.82075 -0.1894,0.12627 -0.63135,0.66291 -0.63135,0.66291 l -0.4735,1.01015 c 0,0 -1.04172,0.37881 -1.07329,0.18941 -0.0316,-0.18941 -0.0947,-0.53665 -0.0947,-0.53665 l -0.41038,-0.34724 z"
       id="path3791"
       inkscape:connector-curvature="0" />
    <path
       style="fill:none;stroke:#391512;stroke-width:1.70000005;stroke-linecap:butt;stroke-linejoin:miter;stroke-miterlimit:4;stroke-opacity:1;stroke-dasharray:none"
       d="m 376.66063,410.78905 3.03046,0.12626 c 0,0 0.88388,6.12405 4.60882,6.25032 3.72494,0.12627 5.80838,-5.61897 5.80838,-5.61897 0,0 10.96314,-26.32734 -0.46543,-38.29162"
       id="path3821"
       inkscape:connector-curvature="0" />
    <g
       id="g3893"
       style="stroke:#391512;stroke-width:1.79999995;stroke-miterlimit:4;stroke-opacity:1;stroke-dasharray:none">
      <path
         inkscape:connector-curvature="0"
         id="path3793"
         d="m 225,375.93361 c 0,0 91.25,-37.67857 106.96429,-12.67857 l 8.21428,10.80357"
         style="fill:none;stroke:#391512;stroke-width:1.79999995;stroke-linecap:butt;stroke-linejoin:miter;stroke-miterlimit:4;stroke-opacity:1;stroke-dasharray:none" />
      <path
         inkscape:connector-curvature="0"
         id="path3795"
         d="m 312.76786,389.7729 c 0,0 14.91071,-7.76786 20.80357,-13.75"
         style="fill:none;stroke:#391512;stroke-width:1.79999995;stroke-linecap:butt;stroke-linejoin:miter;stroke-miterlimit:4;stroke-opacity:1;stroke-dasharray:none" />
      <path
         inkscape:connector-curvature="0"
         id="path3797"
         d="m 305.44643,386.29075 c 0,0 14.46429,-6.69643 27.23214,-16.78571"
         style="fill:none;stroke:#391512;stroke-width:1.79999995;stroke-linecap:butt;stroke-linejoin:miter;stroke-miterlimit:4;stroke-opacity:1;stroke-dasharray:none" />
      <path
         inkscape:connector-curvature="0"
         id="path3799"
         d="m 294.10714,383.88004 c 0,0 16.07143,-3.75 34.46429,-19.28572"
         style="fill:none;stroke:#391512;stroke-width:1.79999995;stroke-linecap:butt;stroke-linejoin:miter;stroke-miterlimit:4;stroke-opacity:1;stroke-dasharray:none" />
      <path
         inkscape:connector-curvature="0"
         id="path3801"
         d="m 287.05357,381.38004 c 0,0 26.96429,-10.17857 33.03572,-19.46429"
         style="fill:none;stroke:#391512;stroke-width:1.79999995;stroke-linecap:butt;stroke-linejoin:miter;stroke-miterlimit:4;stroke-opacity:1;stroke-dasharray:none" />
      <path
         inkscape:connector-curvature="0"
         id="path3803"
         d="m 277.14286,380.75504 c 0,0 23.39286,-8.75 34.55357,-19.375"
         style="fill:none;stroke:#391512;stroke-width:1.79999995;stroke-linecap:butt;stroke-linejoin:miter;stroke-miterlimit:4;stroke-opacity:1;stroke-dasharray:none" />
      <path
         inkscape:connector-curvature="0"
         id="path3805"
         d="m 266.07143,380.57647 c 0,0 22.85714,-9.73215 35.89286,-19.375"
         style="fill:none;stroke:#391512;stroke-width:1.79999995;stroke-linecap:butt;stroke-linejoin:miter;stroke-miterlimit:4;stroke-opacity:1;stroke-dasharray:none" />
      <path
         inkscape:connector-curvature="0"
         id="path3807"
         d="m 250.17857,379.95147 c 0,0 40.08929,-16.51786 41.42857,-19.10715"
         style="fill:none;stroke:#391512;stroke-width:1.79999995;stroke-linecap:butt;stroke-linejoin:miter;stroke-miterlimit:4;stroke-opacity:1;stroke-dasharray:none" />
      <path
         inkscape:connector-curvature="0"
         id="path3809"
         d="m 234.86047,378.3379 42.93148,-15.15229"
         style="fill:none;stroke:#391512;stroke-width:1.79999995;stroke-linecap:butt;stroke-linejoin:miter;stroke-miterlimit:4;stroke-opacity:1;stroke-dasharray:none" />
      <path
         inkscape:connector-curvature="0"
         id="path3811"
         d="m 320.17857,393.07647 c 0,0 10.53572,-6.07143 12.85714,-9.28572"
         style="fill:none;stroke:#391512;stroke-width:1.79999995;stroke-linecap:butt;stroke-linejoin:miter;stroke-miterlimit:4;stroke-opacity:1;stroke-dasharray:none" />
      <path
         inkscape:connector-curvature="0"
         id="path3813"
         d="m 326.60714,395.75504 c 0,0 8.57143,-4.10714 11.33929,-7.58929"
         style="fill:none;stroke:#391512;stroke-width:1.79999995;stroke-linecap:butt;stroke-linejoin:miter;stroke-miterlimit:4;stroke-opacity:1;stroke-dasharray:none" />
      <path
         inkscape:connector-curvature="0"
         id="path3815"
         d="m 333.39286,398.79075 c 0,0 5.26786,-2.67857 7.32143,-5.71428"
         style="fill:none;stroke:#391512;stroke-width:1.79999995;stroke-linecap:butt;stroke-linejoin:miter;stroke-miterlimit:4;stroke-opacity:1;stroke-dasharray:none" />
      <path
         inkscape:connector-curvature="0"
         id="path3817"
         d="m 341.875,400.93361 c 0,0 6.96429,-6.78571 8.125,-10"
         style="fill:none;stroke:#391512;stroke-width:1.79999995;stroke-linecap:butt;stroke-linejoin:miter;stroke-miterlimit:4;stroke-opacity:1;stroke-dasharray:none" />
      <path
         inkscape:connector-curvature="0"
         id="path3819"
         d="m 348.39286,403.43361 c 0,0 6.875,-7.94643 7.41071,-10.17857"
         style="fill:none;stroke:#391512;stroke-width:1.79999995;stroke-linecap:butt;stroke-linejoin:miter;stroke-miterlimit:4;stroke-opacity:1;stroke-dasharray:none" />
      <path
         inkscape:connector-curvature="0"
         id="path3823"
         d="m 354.55357,386.82647 6.25,15.89285"
         style="fill:none;stroke:#391512;stroke-width:1.79999995;stroke-linecap:butt;stroke-linejoin:miter;stroke-miterlimit:4;stroke-opacity:1;stroke-dasharray:none" />
    </g>
    <path
       style="fill:none;stroke:#391512;stroke-width:1.70000005;stroke-linecap:butt;stroke-linejoin:miter;stroke-miterlimit:4;stroke-opacity:1;stroke-dasharray:none"
       d="m 397.11622,380.23193 c 0,0 16.16244,-14.52094 15.9099,-18.94036"
       id="path3825"
       inkscape:connector-curvature="0" />
    <path
       style="fill:none;stroke:#391512;stroke-width:1.70000005;stroke-linecap:butt;stroke-linejoin:miter;stroke-miterlimit:4;stroke-opacity:1;stroke-dasharray:none"
       d="m 419.59211,355.98827 c 0,0 56.18974,-2.65165 100.13138,19.06663"
       id="path3827"
       inkscape:connector-curvature="0" />
    <path
       style="fill:none;stroke:#391512;stroke-width:1.70000005;stroke-linecap:butt;stroke-linejoin:miter;stroke-miterlimit:4;stroke-opacity:1;stroke-dasharray:none"
       d="m 467.32182,363.18561 c 0,0 41.79506,13.38452 42.93149,15.15229"
       id="path3829"
       inkscape:connector-curvature="0" />
    <path
       style="fill:none;stroke:#391512;stroke-width:1.70000005;stroke-linecap:butt;stroke-linejoin:miter;stroke-miterlimit:4;stroke-opacity:1;stroke-dasharray:none"
       d="m 448.88654,360.28142 c 0,0 45.7094,18.43528 46.97209,19.82424"
       id="path3831"
       inkscape:connector-curvature="0" />
    <path
       style="fill:none;stroke:#391512;stroke-width:1.70000005;stroke-linecap:butt;stroke-linejoin:miter;stroke-miterlimit:4;stroke-opacity:1;stroke-dasharray:none"
       d="m 439.29009,360.02888 c 0.75761,0.25254 41.66879,20.70813 41.66879,20.70813"
       id="path3833"
       inkscape:connector-curvature="0" />
    <path
       style="fill:none;stroke:#391512;stroke-width:1.70000005;stroke-linecap:butt;stroke-linejoin:miter;stroke-miterlimit:4;stroke-opacity:1;stroke-dasharray:none"
       d="m 431.46141,361.41784 c 0.50507,0.25254 31.69353,19.44544 34.47145,19.57171"
       id="path3835"
       inkscape:connector-curvature="0" />
    <path
       style="fill:none;stroke:#391512;stroke-width:1.70000005;stroke-linecap:butt;stroke-linejoin:miter;stroke-miterlimit:4;stroke-opacity:1;stroke-dasharray:none"
       d="m 419.84465,360.91276 c 0,0 34.09265,20.96067 38.00699,21.21321"
       id="path3837"
       inkscape:connector-curvature="0" />
    <path
       style="fill:none;stroke:#391512;stroke-width:1.70000005;stroke-linecap:butt;stroke-linejoin:miter;stroke-miterlimit:4;stroke-opacity:1;stroke-dasharray:none"
       d="m 415.5515,364.57457 c 0,0 23.99113,17.42513 33.84011,19.31916"
       id="path3839"
       inkscape:connector-curvature="0" />
    <path
       style="fill:none;stroke:#391512;stroke-width:1.70000005;stroke-linecap:butt;stroke-linejoin:miter;stroke-miterlimit:4;stroke-opacity:1;stroke-dasharray:none"
       d="m 412.26851,370.00414 c 0,0 22.72843,15.40482 27.90546,16.79378"
       id="path3841"
       inkscape:connector-curvature="0" />
    <path
       style="fill:none;stroke:#391512;stroke-width:1.70000005;stroke-linecap:butt;stroke-linejoin:miter;stroke-miterlimit:4;stroke-opacity:1;stroke-dasharray:none"
       d="m 409.36432,376.31759 c 0,0 14.52094,10.73287 22.60216,13.25825"
       id="path3843"
       inkscape:connector-curvature="0" />
    <path
       style="fill:none;stroke:#391512;stroke-width:1.70000005;stroke-linecap:butt;stroke-linejoin:miter;stroke-miterlimit:4;stroke-opacity:1;stroke-dasharray:none"
       d="m 405.08929,379.95147 c 0,0 14.73214,11.33928 20.26785,13.57143"
       id="path3845"
       inkscape:connector-curvature="0" />
    <path
       style="fill:none;stroke:#391512;stroke-width:1.70000005;stroke-linecap:butt;stroke-linejoin:miter;stroke-miterlimit:4;stroke-opacity:1;stroke-dasharray:none"
       d="m 403.57143,385.84432 c 0,0 11.69643,9.01786 13.83929,9.73215"
       id="path3847"
       inkscape:connector-curvature="0" />
    <path
       style="fill:none;stroke:#391512;stroke-width:1.70000005;stroke-linecap:butt;stroke-linejoin:miter;stroke-miterlimit:4;stroke-opacity:1;stroke-dasharray:none"
       d="m 398.83929,387.98718 c 0,0 10.26785,9.82143 13.39285,10.89286"
       id="path3849"
       inkscape:connector-curvature="0" />
    <path
       style="fill:none;stroke:#391512;stroke-width:1.70000005;stroke-linecap:butt;stroke-linejoin:miter;stroke-miterlimit:4;stroke-opacity:1;stroke-dasharray:none"
       d="m 396.875,391.82647 c 0,0 3.83929,9.73214 6.69643,10.26785"
       id="path3851"
       inkscape:connector-curvature="0" />
    <path
       style="fill:#95631a;fill-opacity:1;stroke:#000000;stroke-width:1px;stroke-linecap:butt;stroke-linejoin:miter;stroke-opacity:1"
       d="m 366.33929,417.00504 -0.44643,3.25893 c 0,0 -5.26786,3.16964 -5.53572,4.59821 0,0 5.44643,-1.74107 5.58036,-0.84821 l 2.27679,2.72321 c 0,0 1.91964,-3.4375 1.91964,-3.61607 0,-0.17857 5.58036,-0.44643 5.58036,-0.44643 0,0 -1.69643,-2.67857 -5.17857,-2.67857 l -0.75893,-3.79464 -3.39286,0.13392 z"
       id="path3853"
       inkscape:connector-curvature="0" />
    <path
       style="fill:#95631a;fill-opacity:1;stroke:#000000;stroke-width:1px;stroke-linecap:butt;stroke-linejoin:miter;stroke-opacity:1"
       d="m 383.21429,416.78182 -0.625,3.70536 c 0,0 -5.13393,0.0893 -5.44643,2.09821 l 4.375,0.17858 2.09821,3.52678 2.72322,-2.99107 5.9375,-0.26786 c 0,0 -2.23215,-2.63393 -3.97322,-2.27678 -1.74107,0.35714 -2.23214,-4.82143 -2.23214,-4.82143 0,0 -1.96428,-2.45536 -2.85714,0.84821 z"
       id="path3855"
       inkscape:connector-curvature="0" />
    <g
       id="g3956">
      <path
         inkscape:connector-curvature="0"
         id="path3861"
         d="m 373.5039,433.13867 -3.72493,14.52094 6.56599,-0.44194 z"
         style="fill:#fdb201;fill-opacity:1;stroke:#ef9d13;stroke-width:1px;stroke-linecap:butt;stroke-linejoin:miter;stroke-opacity:1" />
      <path
         inkscape:connector-curvature="0"
         id="path3863"
         d="m 376.15555,445.89185 c 0,0 2.33598,-1.51523 2.77792,-4.86136 0.44195,-3.34613 6.69227,-5.55584 6.69227,-5.55584 0,0 -4.67196,4.54569 -3.97748,7.19734 0.69448,2.65165 -2.08344,6.31345 -2.08344,6.31345 z"
         style="fill:#fdb201;fill-opacity:1;stroke:#ef9d13;stroke-width:1px;stroke-linecap:butt;stroke-linejoin:miter;stroke-opacity:1" />
      <path
         inkscape:connector-curvature="0"
         id="path3865"
         d="m 378.4284,447.97529 10.796,-7.07107 -7.51301,10.66974 -3.15672,-3.21987 z"
         style="fill:#fdb201;fill-opacity:1;stroke:#ef9d13;stroke-width:1px;stroke-linecap:butt;stroke-linejoin:miter;stroke-opacity:1" />
      <path
         style="fill:#fdb201;fill-opacity:1;stroke:#ef9d13;stroke-width:1px;stroke-linecap:butt;stroke-linejoin:miter;stroke-opacity:1"
         d="m 382.12684,454.15448 c 0,0 1.69864,-2.20621 5.06951,-2.37691 3.37087,-0.17072 6.07734,-6.22253 6.07734,-6.22253 0,0 -4.90758,4.29024 -7.49461,3.38422 -2.58702,-0.90601 -6.46088,1.56762 -6.46088,1.56762 z"
         id="path3867"
         inkscape:connector-curvature="0" />
      <path
         style="fill:#fdb201;fill-opacity:1;stroke:#ef9d13;stroke-width:1px;stroke-linecap:butt;stroke-linejoin:miter;stroke-opacity:1"
         d="m 395.05458,456.55536 -14.52094,-3.72493 0.44194,6.56599 z"
         id="path3869"
         inkscape:connector-curvature="0" />
      <path
         style="fill:#fdb201;fill-opacity:1;stroke:#ef9d13;stroke-width:1px;stroke-linecap:butt;stroke-linejoin:miter;stroke-opacity:1"
         d="m 371.05458,445.89185 c 0,0 -2.33598,-1.51523 -2.77792,-4.86136 -0.44195,-3.34613 -6.69227,-5.55584 -6.69227,-5.55584 0,0 4.67196,4.54569 3.97748,7.19734 -0.69448,2.65165 2.08344,6.31345 2.08344,6.31345 z"
         id="path3871"
         inkscape:connector-curvature="0" />
      <path
         style="fill:#fdb201;fill-opacity:1;stroke:#ef9d13;stroke-width:1px;stroke-linecap:butt;stroke-linejoin:miter;stroke-opacity:1"
         d="m 368.78173,447.97529 -10.796,-7.07107 7.51301,10.66974 3.15672,-3.21987 z"
         id="path3873"
         inkscape:connector-curvature="0" />
      <path
         inkscape:connector-curvature="0"
         id="path3875"
         d="m 365.08329,454.15448 c 0,0 -1.69864,-2.20621 -5.06951,-2.37691 -3.37087,-0.17072 -6.07734,-6.22253 -6.07734,-6.22253 0,0 4.90758,4.29024 7.49461,3.38422 2.58702,-0.90601 6.46088,1.56762 6.46088,1.56762 z"
         style="fill:#fdb201;fill-opacity:1;stroke:#ef9d13;stroke-width:1px;stroke-linecap:butt;stroke-linejoin:miter;stroke-opacity:1" />
      <path
         inkscape:connector-curvature="0"
         id="path3877"
         d="m 352.15555,456.55536 14.52094,-3.72493 -0.44194,6.56599 z"
         style="fill:#fdb201;fill-opacity:1;stroke:#ef9d13;stroke-width:1px;stroke-linecap:butt;stroke-linejoin:miter;stroke-opacity:1" />
      <path
         style="fill:#fdb201;fill-opacity:1;stroke:#ef9d13;stroke-width:1px;stroke-linecap:butt;stroke-linejoin:miter;stroke-opacity:1"
         d="m 373.59319,479.08305 -3.72493,-14.52094 6.56599,0.44194 z"
         id="path3879"
         inkscape:connector-curvature="0" />
      <path
         style="fill:#fdb201;fill-opacity:1;stroke:#ef9d13;stroke-width:1px;stroke-linecap:butt;stroke-linejoin:miter;stroke-opacity:1"
         d="m 376.24484,466.32987 c 0,0 2.33598,1.51523 2.77792,4.86136 0.44195,3.34613 6.69227,5.55584 6.69227,5.55584 0,0 -4.67196,-4.54569 -3.97748,-7.19734 0.69448,-2.65165 -2.08344,-6.31345 -2.08344,-6.31345 z"
         id="path3881"
         inkscape:connector-curvature="0" />
      <path
         style="fill:#fdb201;fill-opacity:1;stroke:#ef9d13;stroke-width:1px;stroke-linecap:butt;stroke-linejoin:miter;stroke-opacity:1"
         d="m 378.51769,464.24643 10.796,7.07107 -7.51301,-10.66974 -3.15672,3.21987 z"
         id="path3883"
         inkscape:connector-curvature="0" />
      <path
         inkscape:connector-curvature="0"
         id="path3885"
         d="m 382.21613,458.06724 c 0,0 1.69864,2.20621 5.06951,2.37691 3.37087,0.17072 6.07734,6.22253 6.07734,6.22253 0,0 -4.90758,-4.29024 -7.49461,-3.38422 -2.58702,0.90601 -6.46088,-1.56762 -6.46088,-1.56762 z"
         style="fill:#fdb201;fill-opacity:1;stroke:#ef9d13;stroke-width:1px;stroke-linecap:butt;stroke-linejoin:miter;stroke-opacity:1" />
      <path
         inkscape:connector-curvature="0"
         id="path3887"
         d="m 371.14387,466.32987 c 0,0 -2.33598,1.51523 -2.77792,4.86136 -0.44195,3.34613 -6.69227,5.55584 -6.69227,5.55584 0,0 4.67196,-4.54569 3.97748,-7.19734 -0.69448,-2.65165 2.08344,-6.31345 2.08344,-6.31345 z"
         style="fill:#fdb201;fill-opacity:1;stroke:#ef9d13;stroke-width:1px;stroke-linecap:butt;stroke-linejoin:miter;stroke-opacity:1" />
      <path
         inkscape:connector-curvature="0"
         id="path3889"
         d="m 368.87102,464.24643 -10.796,7.07107 7.51301,-10.66974 3.15672,3.21987 z"
         style="fill:#fdb201;fill-opacity:1;stroke:#ef9d13;stroke-width:1px;stroke-linecap:butt;stroke-linejoin:miter;stroke-opacity:1" />
      <path
         style="fill:#fdb201;fill-opacity:1;stroke:#ef9d13;stroke-width:1px;stroke-linecap:butt;stroke-linejoin:miter;stroke-opacity:1"
         d="m 365.17258,458.06724 c 0,0 -1.69864,2.20621 -5.06951,2.37691 -3.37087,0.17072 -6.07734,6.22253 -6.07734,6.22253 0,0 4.90758,-4.29024 7.49461,-3.38422 2.58702,0.90601 6.46088,-1.56762 6.46088,-1.56762 z"
         id="path3891"
         inkscape:connector-curvature="0" />
    </g>
    <path
       style="fill:#572e00;fill-opacity:1;stroke:#000000;stroke-width:1px;stroke-linecap:butt;stroke-linejoin:miter;stroke-opacity:1"
       d="m 328.04704,611.17806 92.17642,0 c 0,0 6.31345,14.39467 -0.75762,26.26396 l -89.14596,0 c 0,0 -8.08122,-11.61675 -2.27284,-26.26396 z"
       id="path3893"
       inkscape:connector-curvature="0" />
    <g
       id="g3940"
       style="fill:#88653f;fill-opacity:1;stroke:none">
      <path
         inkscape:connector-curvature="0"
         id="path3895"
         d="m 366.33929,611.20147 0,26.07143 c 0,0 4.23509,0.52215 4.375,0 0.13991,-0.52215 0,-26.07143 0,-26.07143 z"
         style="fill:#88653f;fill-opacity:1;stroke:none" />
      <path
         inkscape:connector-curvature="0"
         id="path3897"
         d="m 365.625,611.6479 -23.05702,25.92039 -4.16688,-0.12627 23.61232,-26.26396 z"
         style="fill:#88653f;fill-opacity:1;stroke:none" />
      <path
         inkscape:connector-curvature="0"
         id="path3899"
         d="m 338.66072,612.00504 23.92857,25.53571 3.66071,0 -23.83928,-25.89285 z"
         style="fill:#88653f;fill-opacity:1;stroke:none" />
      <path
         style="fill:#88653f;fill-opacity:1;stroke:none"
         d="m 382.83828,611.20147 0,26.07143 c 0,0 -4.23509,0.52215 -4.375,0 -0.13991,-0.52215 0,-26.07143 0,-26.07143 z"
         id="path3901"
         inkscape:connector-curvature="0" />
      <path
         style="fill:#88653f;fill-opacity:1;stroke:none"
         d="m 383.55257,611.6479 23.05702,25.92039 4.16688,-0.12627 -23.61232,-26.26396 z"
         id="path3903"
         inkscape:connector-curvature="0" />
      <path
         style="fill:#88653f;fill-opacity:1;stroke:none"
         d="m 410.51685,612.00504 -23.92857,25.53571 -3.66071,0 23.83928,-25.89285 z"
         id="path3905"
         inkscape:connector-curvature="0" />
    </g>
    <path
       style="fill:#fad4a7;fill-opacity:1;stroke:#6c4e15;stroke-width:0.69999999;stroke-linecap:butt;stroke-linejoin:miter;stroke-miterlimit:4;stroke-opacity:1;stroke-dasharray:none"
       d="m 382.46901,600.69773 c 0,0 -0.88389,6.81852 3.91434,9.97525 0,0 -9.34391,2.52538 -11.11168,9.21764 0,0 -3.91434,-8.08122 -12.2481,-10.22779 0,0 3.6618,-3.6618 3.78807,-8.9651 0,0 7.32361,4.29315 15.65737,0 z"
       id="path3859"
       inkscape:connector-curvature="0"
       sodipodi:nodetypes="cccccc" />
    <rect
       y="622.7193"
       x="310.32144"
       height="2.8571429"
       width="17.857143"
       id="rect3909"
       style="fill:#b28d61;fill-opacity:1;stroke:none" />
    <path
       sodipodi:type="arc"
       style="fill:#b5bfb7;fill-opacity:1;stroke:#484848;stroke-width:1.24699998;stroke-linecap:round;stroke-linejoin:round;stroke-miterlimit:4;stroke-opacity:1;stroke-dasharray:none;stroke-dashoffset:0"
       id="path3911"
       sodipodi:cx="309.10669"
       sodipodi:cy="624.24689"
       sodipodi:rx="3.2829957"
       sodipodi:ry="3.0935922"
       d="m 312.38969,624.24689 c 0,1.70854 -1.46985,3.09359 -3.283,3.09359 -1.81315,0 -3.283,-1.38505 -3.283,-3.09359 0,-1.70855 1.46985,-3.09359 3.283,-3.09359 1.81315,0 3.283,1.38504 3.283,3.09359 z" />
    <path
       style="fill:#b5bfb7;fill-opacity:1;stroke:#484848;stroke-width:1px;stroke-linecap:butt;stroke-linejoin:miter;stroke-opacity:1"
       d="m 310.74818,621.91093 c 0,0 -0.37881,-6.31345 5.68211,-4.9245 0,0 -5.30331,-18.05647 -15.27856,0.25254 0,0 6.43972,-1.89403 7.07107,4.16688 0.88388,1.13642 2.52538,0.50508 2.52538,0.50508 z"
       id="path3913"
       inkscape:connector-curvature="0" />
    <path
       style="fill:#b5bfb7;fill-opacity:1;stroke:#484848;stroke-width:1px;stroke-linecap:butt;stroke-linejoin:miter;stroke-opacity:1"
       d="m 306.32876,623.17362 -9.09137,-5.05076 -11.74303,5.93464 11.8693,6.9448 z"
       id="path3915"
       inkscape:connector-curvature="0" />
    <path
       style="fill:#b5bfb7;fill-opacity:1;stroke:#484848;stroke-width:1px;stroke-linecap:butt;stroke-linejoin:miter;stroke-opacity:1"
       d="M 305.69741,624.18377 286.88332,624.0575"
       id="path3917"
       inkscape:connector-curvature="0" />
    <path
       style="fill:#feb008;fill-opacity:1;stroke:#000000;stroke-width:0.5;stroke-linecap:butt;stroke-linejoin:miter;stroke-miterlimit:4;stroke-opacity:1;stroke-dasharray:none"
       d="m 356.5,637.71875 -18.46875,-0.1875 c 0,0 -3.20089,15.63393 -4.71875,21.4375 -1.51785,5.80358 7.9375,2.5 7.9375,2.5 0,0 -0.0308,4.94204 -0.0937,9.71875 l 0.71875,-0.25 14.71875,-6.625 -0.0625,-26.40625 -0.0312,-0.1875 z"
       id="path3931"
       inkscape:connector-curvature="0" />
    <path
       style="fill:#005d9a;fill-opacity:1;stroke:#000000;stroke-width:0.5;stroke-linecap:butt;stroke-linejoin:miter;stroke-miterlimit:4;stroke-opacity:1;stroke-dasharray:none"
       d="m 356.5,637.71875 0.0312,0.1875 0.0625,26.40625 -14.71875,6.625 -0.71875,0.25 c -0.008,0.61432 0.0102,0.62937 0,1.25 -0.0893,5.44643 10,1.625 10,1.625 l 0.0312,2.53125 0.15625,-0.0312 c 2.05357,0 3.80127,-0.10547 5.3125,-0.28125 1.51123,-0.17578 2.79325,-0.41741 3.84375,-0.71875 1.0505,-0.30134 1.89111,-0.65458 2.5625,-1.03125 0.67139,-0.37667 1.15737,-0.78571 1.53125,-1.1875 0.37388,-0.40179 0.62326,-0.81083 0.78125,-1.1875 0.15799,-0.37667 0.22628,-0.72991 0.25,-1.03125 0.0474,-0.60268 -0.0937,-1 -0.0937,-1 l 0,-32.3125 -9.03125,-0.0937 z"
       id="path3928"
       inkscape:connector-curvature="0" />
    <path
       style="fill:#d20106;fill-opacity:1;stroke:#000000;stroke-width:0.5;stroke-linecap:butt;stroke-linejoin:miter;stroke-miterlimit:4;stroke-opacity:1;stroke-dasharray:none"
       d="m 365.53125,637.8125 0,32.3125 c 0,0 0.14118,0.39732 0.0937,1 -0.0237,0.30134 -0.092,0.65458 -0.25,1.03125 -0.15799,0.37667 -0.40737,0.78571 -0.78125,1.1875 -0.37388,0.40179 -0.85986,0.81083 -1.53125,1.1875 -0.67139,0.37667 -1.512,0.72991 -2.5625,1.03125 -1.0505,0.30134 -2.33252,0.54297 -3.84375,0.71875 -1.51123,0.17578 -3.25893,0.28125 -5.3125,0.28125 l -0.15625,0.0312 0.0625,4.15625 c 15.17857,8.92857 23.75,-5 23.75,-5 l 0,-37.84375 -9.46875,-0.0937 z"
       id="path3919"
       inkscape:connector-curvature="0" />
    <path
       style="fill:none;stroke:#000000;stroke-width:0.40000001;stroke-linecap:butt;stroke-linejoin:miter;stroke-miterlimit:4;stroke-opacity:1;stroke-dasharray:none"
       d="m 340.71429,661.82647 11.42857,-4.28572"
       id="path3921"
       inkscape:connector-curvature="0" />
    <path
       id="path3948"
       d="m 393.64752,637.71875 18.46875,-0.1875 c 0,0 3.20089,15.63393 4.71875,21.4375 1.51785,5.80358 -7.9375,2.5 -7.9375,2.5 0,0 0.0308,4.94204 0.0937,9.71875 l -0.71875,-0.25 -14.71875,-6.625 0.0625,-26.40625 0.0312,-0.1875 z"
       style="fill:#feb008;fill-opacity:1;stroke:#000000;stroke-width:0.5;stroke-linecap:butt;stroke-linejoin:miter;stroke-miterlimit:4;stroke-opacity:1;stroke-dasharray:none"
       inkscape:connector-curvature="0" />
    <path
       id="path3950"
       d="m 393.64752,637.71875 -0.0312,0.1875 -0.0625,26.40625 14.71875,6.625 0.71875,0.25 c 0.008,0.61432 -0.0102,0.62937 0,1.25 0.0893,5.44643 -10,1.625 -10,1.625 l -0.0312,2.53125 -0.15625,-0.0312 c -2.05357,0 -3.80127,-0.10547 -5.3125,-0.28125 -1.51123,-0.17578 -2.79325,-0.41741 -3.84375,-0.71875 -1.0505,-0.30134 -1.89111,-0.65458 -2.5625,-1.03125 -0.67139,-0.37667 -1.15737,-0.78571 -1.53125,-1.1875 -0.37388,-0.40179 -0.62326,-0.81083 -0.78125,-1.1875 -0.15799,-0.37667 -0.22628,-0.72991 -0.25,-1.03125 -0.0474,-0.60268 0.0937,-1 0.0937,-1 l 0,-32.3125 9.03125,-0.0937 z"
       style="fill:#005d9a;fill-opacity:1;stroke:#000000;stroke-width:0.5;stroke-linecap:butt;stroke-linejoin:miter;stroke-miterlimit:4;stroke-opacity:1;stroke-dasharray:none"
       inkscape:connector-curvature="0" />
    <path
       id="path3952"
       d="m 384.61627,637.8125 0,32.3125 c 0,0 -0.14118,0.39732 -0.0937,1 0.0237,0.30134 0.092,0.65458 0.25,1.03125 0.15799,0.37667 0.40737,0.78571 0.78125,1.1875 0.37388,0.40179 0.85986,0.81083 1.53125,1.1875 0.67139,0.37667 1.512,0.72991 2.5625,1.03125 1.0505,0.30134 2.33252,0.54297 3.84375,0.71875 1.51123,0.17578 3.25893,0.28125 5.3125,0.28125 l 0.15625,0.0312 -0.0625,4.15625 c -15.17857,8.92857 -23.75,-5 -23.75,-5 l 0,-37.84375 9.46875,-0.0937 z"
       style="fill:#d20106;fill-opacity:1;stroke:#000000;stroke-width:0.5;stroke-linecap:butt;stroke-linejoin:miter;stroke-miterlimit:4;stroke-opacity:1;stroke-dasharray:none"
       inkscape:connector-curvature="0" />
    <path
       inkscape:connector-curvature="0"
       id="path3954"
       d="m 410.14286,661.82647 -11.42857,-4.28572"
       style="fill:none;stroke:#000000;stroke-width:0.40000001;stroke-linecap:butt;stroke-linejoin:miter;stroke-miterlimit:4;stroke-opacity:1;stroke-dasharray:none" />
    <path
       sodipodi:type="arc"
       style="fill:#fdb201;fill-opacity:1;fill-rule:evenodd;stroke:#dd9d0a;stroke-width:1.29838645;stroke-linecap:round;stroke-linejoin:round;stroke-miterlimit:4;stroke-opacity:1;stroke-dasharray:none;stroke-dashoffset:0"
       id="path3009"
       sodipodi:cx="371.875"
       sodipodi:cy="456.38004"
       sodipodi:rx="12.946428"
       sodipodi:ry="11.875"
       d="m 384.82143,456.38004 c 0,6.55838 -5.79632,11.875 -12.94643,11.875 -7.15011,0 -12.94643,-5.31662 -12.94643,-11.875 0,-6.55839 5.79632,-11.875 12.94643,-11.875 7.15011,0 12.94643,5.31661 12.94643,11.875 z"
       transform="matrix(0.92889346,0,0,0.99302246,27.648211,3.1505507)" />
    <path
       style="fill:#657b86;fill-opacity:1;stroke:none"
       d="m 350.53572,567.54075 8.75,1.96429 10.71428,0 0,-13.92857 1.96429,0 0,13.75 25.89285,0 0,-13.75 2.14286,0 0,10.89285 1.0443,-0.27981 0,-2.04161 3.06284,0 0,2.85714 6.42858,-11.60714 c 0,0 5.35714,3.39285 5.89285,5.71428 l -2.41071,7.05357 c 0,0 -0.44643,-3.30357 -1.875,-3.48214 -1.42857,-0.17857 -3.66072,-2.32143 -3.66072,-2.32143 l -2.94642,5.17857 2.23214,0 0,2.32143 -2.32452,4.02619 -14.4612,0 -1.37976,1.37976 -8.79881,0 -7.32143,0 -1.11466,0.80713 -9.09137,0 -6.31345,-1.26269 -0.89123,-2.45039 -3.66071,-1.78571 z"
       id="path4192"
       inkscape:connector-curvature="0" />
  </g>
</svg>
